HIERARCHY
ROOT Pelvis
{
	OFFSET 0.000000 0.000000 0.000000
	CHANNELS 6 Xposition Yposition Zposition Xrotation Yrotation Zrotation
	JOINT LeftUpLeg_virtual
	{
		OFFSET 0.000000 0.000000 0.000000
		CHANNELS 3 Xrotation Yrotation Zrotation
		JOINT LeftUpLeg
		{
			OFFSET 8.479700 -4.795502 -0.379100
			CHANNELS 3 Xrotation Yrotation Zrotation
			JOINT LeftLeg
			{
				OFFSET 0.024144 -32.555107 0.112900
				CHANNELS 3 Xrotation Yrotation Zrotation
				JOINT LeftFoot
				{
					OFFSET -0.024144 -32.638630 -3.012600
					CHANNELS 3 Xrotation Yrotation Zrotation
					JOINT LeftToeBase
					{
						OFFSET 0.970200 -13.225400 11.864200
						CHANNELS 3 Xrotation Yrotation Zrotation
						End Site
						{
							OFFSET 0 0 0
						}
					}
				}
			}
		}
	}
	JOINT RightUpLeg_virtual
	{
		OFFSET 0.000000 0.000000 0.000000
		CHANNELS 3 Xrotation Yrotation Zrotation
		JOINT RightUpLeg
		{
			OFFSET -8.479700 -4.795502 -0.379100
			CHANNELS 3 Xrotation Yrotation Zrotation
			JOINT RightLeg
			{
				OFFSET -0.023144 -32.555092 0.112900
				CHANNELS 3 Xrotation Yrotation Zrotation
				JOINT RightFoot
				{
					OFFSET 0.023144 -32.638641 -3.012700
					CHANNELS 3 Xrotation Yrotation Zrotation
					JOINT RightToeBase
					{
						OFFSET -0.970200 -13.225400 11.864200
						CHANNELS 3 Xrotation Yrotation Zrotation
						End Site
						{
							OFFSET 0 0 0
						}
					}
				}
			}
		}
	}
	JOINT Hips_virtual
	{
		OFFSET 0.000000 0.000000 0.000000
		CHANNELS 3 Xrotation Yrotation Zrotation
		JOINT Hips
		{
			OFFSET -0.000000 -0.000000 -0.000000
			CHANNELS 3 Xrotation Yrotation Zrotation
			JOINT Spine
			{
				OFFSET 0.000000 7.722000 1.166200
				CHANNELS 3 Xrotation Yrotation Zrotation
				JOINT Spine1
				{
					OFFSET 0.000000 12.024101 0.248800
					CHANNELS 3 Xrotation Yrotation Zrotation
					JOINT Spine2
					{
						OFFSET 0.000000 11.502998 -0.491200
						CHANNELS 3 Xrotation Yrotation Zrotation
						JOINT Neck_virtual
						{
							OFFSET 0.000000 0.000000 0.000000
							CHANNELS 3 Xrotation Yrotation Zrotation
							JOINT Neck
							{
								OFFSET 0.000000 18.430702 -3.123100
								CHANNELS 3 Xrotation Yrotation Zrotation
								JOINT Head
								{
									OFFSET 0.000000 9.051102 1.034000
									CHANNELS 3 Xrotation Yrotation Zrotation
									End Site
									{
										OFFSET 0 0 0
									}
								}
							}
						}
						JOINT LeftShoulder_virtual
						{
							OFFSET 0.000000 0.000000 0.000000
							CHANNELS 3 Xrotation Yrotation Zrotation
							JOINT LeftShoulder
							{
								OFFSET 6.197800 13.665199 -4.064700
								CHANNELS 3 Xrotation Yrotation Zrotation
								JOINT LeftArm
								{
									OFFSET 7.778100 -0.187103 -1.709300
									CHANNELS 3 Xrotation Yrotation Zrotation
									JOINT LeftForeArm
									{
										OFFSET 22.049376 0.000000 0.000000
										CHANNELS 3 Xrotation Yrotation Zrotation
										JOINT LeftHand
										{
											OFFSET 23.009392 0.000000 0.000000
											CHANNELS 3 Xrotation Yrotation Zrotation
											End Site
											{
												OFFSET 0 0 0
											}
										}
									}
								}
							}
						}
						JOINT RightShoulder_virtual
						{
							OFFSET 0.000000 0.000000 0.000000
							CHANNELS 3 Xrotation Yrotation Zrotation
							JOINT RightShoulder
							{
								OFFSET -6.197800 13.665199 -4.064700
								CHANNELS 3 Xrotation Yrotation Zrotation
								JOINT RightArm
								{
									OFFSET -7.778100 -0.187103 -1.709300
									CHANNELS 3 Xrotation Yrotation Zrotation
									JOINT RightForeArm
									{
										OFFSET -22.049376 0.000000 0.000000
										CHANNELS 3 Xrotation Yrotation Zrotation
										JOINT RightHand
										{
											OFFSET -23.009392 0.000000 0.000000
											CHANNELS 3 Xrotation Yrotation Zrotation
											End Site
											{
												OFFSET 0 0 0
											}
										}
									}
								}
							}
						}
					}
				}
			}
		}
	}
}
MOTION
Frames: 5
Frame Time: 0.03333333
-0.078549 81.173584 1.067823 0.000000 0.000000 0.000000 -2.728702 3.573036 0.680269 -3.686372 11.494081 5.478128 19.306643 -4.194320 0.935830 -13.149309 0.848354 -4.632719 0.000000 0.000000 0.000000 -2.728702 3.573036 0.680269 -0.648431 -4.702337 -4.552614 19.568574 -9.267601 3.906361 -14.500862 -19.066717 2.678321 0.000000 0.000000 0.000000 -2.728702 3.573036 0.680269 0.000000 0.000000 0.000000 -0.565591 -0.770577 -3.810375 1.149532 -0.103991 1.499583 0.000000 0.000000 0.000000 1.152620 -0.098084 1.497723 8.457851 0.270831 0.379498 0.000000 0.000000 0.000000 1.152620 -0.098084 1.497723 6.883882 -26.760618 -3.764301 5.911086 4.517226 -79.896384 0.000004 -18.872940 -0.000002 0.000000 0.000000 0.000000 1.152620 -0.098084 1.497723 0.447593 -3.990811 8.744687 8.902103 19.263649 69.814109 0.000000 13.419896 -0.000012 0.000000 0.000000 0.000000 
-0.083958 81.171692 1.081160 0.000000 0.000000 0.000000 -2.715002 3.561517 0.675516 -3.689830 11.496892 5.487783 19.308364 -4.187273 0.935256 -13.161518 0.850267 -4.640956 0.000000 0.000000 0.000000 -2.715002 3.561517 0.675516 -0.651242 -4.704096 -4.548993 19.567544 -9.266939 3.913835 -14.512571 -19.053593 2.672618 0.000000 0.000000 0.000000 -2.715002 3.561517 0.675516 0.000000 0.000000 0.000000 -0.564730 -0.775211 -3.811036 1.145595 -0.104598 1.502204 0.000000 0.000000 0.000000 1.148703 -0.098714 1.500344 8.441300 0.281180 0.369448 0.000000 0.000000 0.000000 1.148703 -0.098714 1.500344 6.880136 -26.751008 -3.764938 5.911936 4.505757 -79.903596 -0.000002 -18.867750 0.000010 0.000000 0.000000 0.000000 1.148703 -0.098714 1.500344 0.447803 -3.989254 8.743095 8.906550 19.272805 69.810312 -0.000005 13.433809 0.000014 0.000000 0.000000 0.000000 
-0.089859 81.169937 1.095167 0.000000 0.000000 0.000000 -2.702165 3.550545 0.670300 -3.691853 11.500685 5.498789 19.309320 -4.181622 0.934362 -13.173784 0.852245 -4.649399 0.000000 0.000000 0.000000 -2.702165 3.550545 0.670300 -0.650402 -4.705594 -4.543860 19.562854 -9.266492 3.921100 -14.523605 -19.042026 2.666301 0.000000 0.000000 0.000000 -2.702165 3.550545 0.670300 0.000000 0.000000 0.000000 -0.562918 -0.781970 -3.811725 1.142374 -0.105479 1.505871 0.000000 0.000000 0.000000 1.145511 -0.099612 1.504005 8.426182 0.289927 0.361756 0.000000 0.000000 0.000000 1.145511 -0.099612 1.504005 6.876205 -26.741162 -3.765901 5.916044 4.497564 -79.909791 0.000001 -18.862134 0.000010 0.000000 0.000000 0.000000 1.145511 -0.099612 1.504005 0.447137 -3.992707 8.741732 8.916821 19.279770 69.800797 -0.000002 13.450140 0.000010 0.000000 0.000000 0.000000 
-0.095958 81.168297 1.109880 0.000000 0.000000 0.000000 -2.690874 3.540485 0.665323 -3.690694 11.504573 5.509339 19.308047 -4.176498 0.934135 -13.185439 0.854320 -4.658392 0.000000 0.000000 0.000000 -2.690874 3.540485 0.665323 -0.646308 -4.707395 -4.537996 19.556809 -9.266575 3.928270 -14.535104 -19.032595 2.659624 0.000000 0.000000 0.000000 -2.690874 3.540485 0.665323 0.000000 0.000000 0.000000 -0.560585 -0.790423 -3.812737 1.140142 -0.106574 1.510630 0.000000 0.000000 0.000000 1.143316 -0.100721 1.508753 8.412551 0.297273 0.355596 0.000000 0.000000 0.000000 1.143316 -0.100721 1.508753 6.872128 -26.731024 -3.767449 5.921152 4.490965 -79.912790 -0.000008 -18.857099 -0.000018 0.000000 0.000000 0.000000 1.143316 -0.100721 1.508753 0.445813 -3.999975 8.740760 8.930331 19.284672 69.787403 -0.000004 13.466609 -0.000004 0.000000 0.000000 0.000000 
-0.101996 81.166809 1.125235 0.000000 0.000000 0.000000 -2.681094 3.531194 0.660943 -3.686198 11.507557 5.518123 19.304693 -4.170537 0.935552 -13.196611 0.856550 -4.668392 0.000000 0.000000 0.000000 -2.681094 3.531194 0.660943 -0.638643 -4.710125 -4.531915 19.548295 -9.267672 3.935431 -14.546262 -19.024684 2.652622 0.000000 0.000000 0.000000 -2.681094 3.531194 0.660943 0.000000 0.000000 0.000000 -0.559240 -0.799622 -3.814079 1.139016 -0.107763 1.516219 0.000000 0.000000 0.000000 1.142232 -0.101915 1.514327 8.400877 0.302968 0.350914 0.000000 0.000000 0.000000 1.142232 -0.101915 1.514327 6.868264 -26.720789 -3.769765 5.924330 4.484671 -79.910085 0.000009 -18.854213 -0.000007 0.000000 0.000000 0.000000 1.142232 -0.101915 1.514327 0.444131 -4.009371 8.740164 8.941828 19.288164 69.773169 -0.000004 13.479142 -0.000008 0.000000 0.000000 0.000000 
